<svg width="196" height="33" viewBox="0 0 196 33" fill="none" xmlns="http://www.w3.org/2000/svg">
<path d="M79.0814 20.0313H83.4312C83.0902 23.5847 80.1627 26.0299 76.3536 26.0299C72.033 26.0299 68.8206 22.988 68.8206 18.7818C68.8206 14.5756 72.033 11.5337 76.3536 11.5337C80.1627 11.5337 83.0902 14.0058 83.4312 17.5592H79.0814C78.8548 16.3097 77.7736 15.4281 76.3805 15.4281C74.3907 15.4281 73.2264 16.9064 73.2264 18.7818C73.2264 20.6572 74.3929 22.1355 76.3805 22.1355C77.7736 22.1355 78.8526 21.2831 79.0814 20.0313Z" fill="white"/>
<path d="M100.453 18.7818C100.453 22.988 97.2409 26.0591 92.8911 26.0591C88.5414 26.0591 85.302 22.988 85.302 18.7818C85.302 14.5756 88.5144 11.5337 92.8911 11.5337C97.2678 11.5337 100.453 14.6317 100.453 18.7818ZM96.0766 18.811C96.0766 16.9356 94.7979 15.4281 92.8934 15.4281C90.9888 15.4281 89.681 16.9356 89.681 18.811C89.681 20.6864 90.9596 22.1647 92.8934 22.1647C94.8271 22.1647 96.0766 20.7424 96.0766 18.811Z" fill="white"/>
<path d="M117.563 5.50806V25.6888H112.957V25.0068C111.935 25.6596 110.712 26.0589 109.177 26.0589C105.454 26.0589 102.326 22.9318 102.326 18.8108C102.326 14.6899 105.454 11.5919 109.177 11.5919C110.712 11.5919 111.935 11.989 112.957 12.6709V5.50806H117.563ZM112.957 20.9711V16.7066C112.076 15.7397 111.109 15.484 110.115 15.484C108.24 15.484 106.847 16.9332 106.847 18.8108C106.847 20.6885 108.24 22.1937 110.115 22.1937C111.109 22.1937 112.076 21.938 112.957 20.9711Z" fill="white"/>
<path d="M134.273 19.89H124.297C124.609 21.3122 125.549 22.4204 127.424 22.4204C128.447 22.4204 129.044 22.1939 129.47 21.6824H134.132C133.306 24.3833 130.749 26.0591 127.51 26.0591C122.989 26.0591 119.977 22.988 119.977 18.7818C119.977 14.5756 122.904 11.5337 127.169 11.5337C131.433 11.5337 134.361 14.1494 134.361 18.3264C134.361 18.867 134.361 19.3494 134.275 19.89M124.353 17.2474H130.067C129.84 15.6277 128.844 14.9458 127.281 14.9458C125.717 14.9458 124.723 15.8543 124.353 17.2474Z" fill="white"/>
<path d="M151.722 11.9038L143.139 32.255H138.307L141.178 25.404L134.441 11.9038H139.33L143.253 20.4575L146.863 11.9038H151.722Z" fill="white"/>
<path d="M167.041 11.9038V25.6889H162.436V24.9509C161.413 25.6328 160.19 26.0591 158.656 26.0591C154.932 26.0591 151.805 22.8758 151.805 18.7818C151.805 14.6878 154.932 11.5337 158.656 11.5337C160.19 11.5337 161.413 11.9308 162.436 12.6127V11.9016H167.041V11.9038ZM162.436 20.9129V16.6484C161.554 15.6816 160.587 15.4258 159.594 15.4258C157.718 15.4258 156.325 16.875 156.325 18.7796C156.325 20.6841 157.718 22.1333 159.594 22.1333C160.587 22.1333 161.554 21.8776 162.436 20.9107" fill="white"/>
<path d="M179.543 16.0536C177.298 16.1389 175.875 16.7356 174.796 17.7877V25.6909H170.164V11.9058H174.796V13.3841C176.019 12.332 177.497 11.6792 179.543 11.6792V16.0559V16.0536Z" fill="white"/>
<path d="M196 5.50806V25.6888H191.394V25.0068C190.371 25.6596 189.149 26.0589 187.614 26.0589C183.891 26.0589 180.763 22.9318 180.763 18.8108C180.763 14.6899 183.891 11.5919 187.614 11.5919C189.149 11.5919 190.371 11.989 191.394 12.6709V5.50806H196ZM191.394 20.9711V16.7066C190.513 15.7397 189.546 15.484 188.552 15.484C186.677 15.484 185.284 16.9332 185.284 18.8108C185.284 20.6885 186.677 22.1937 188.552 22.1937C189.546 22.1937 190.513 21.938 191.394 20.9711Z" fill="white"/>
<path d="M14.9378 0.413754L0.41238 14.9391C-0.13746 15.489 -0.13746 16.3825 0.41238 16.9337L14.9378 31.4591C15.4876 32.0089 16.3811 32.0089 16.9309 31.4591L18.9255 29.4645C19.4753 28.9147 19.4753 28.0212 18.9255 27.47L7.39122 15.9357L18.9255 4.40147C19.4753 3.85025 19.4753 2.95814 18.9255 2.40692L16.9309 0.41238C16.656 0.13746 16.2945 0 15.9344 0C15.5742 0 15.2127 0.13746 14.9378 0.41238" fill="#5D31D9"/>
<path d="M26.9009 0.414089L24.9077 2.40863C24.3565 2.95847 24.3565 3.85196 24.9077 4.40318L36.442 15.9374L24.9077 27.4717C24.3565 28.0229 24.3565 28.915 24.9077 29.4662L26.9009 31.4608C27.4521 32.0106 28.3442 32.0106 28.8954 31.4608L43.4208 16.9354C43.9721 16.3842 43.9721 15.4921 43.4208 14.9409L28.8954 0.414089C28.6205 0.139169 28.259 0.00170898 27.8989 0.00170898C27.5387 0.00170898 27.1772 0.139169 26.9023 0.414089" fill="#5D31D9"/>
<path d="M51.96 0.419216L43.421 8.95823C42.8698 9.50806 42.8698 10.4016 43.421 10.9528L45.4156 12.9459C45.9668 13.4972 46.8589 13.4972 47.4101 12.9459L55.9491 4.40693C56.4989 3.85709 56.4989 2.9636 55.9491 2.41376L53.9546 0.419216C53.6796 0.144296 53.3181 0.00683594 52.958 0.00683594C52.5978 0.00683594 52.2363 0.144296 51.9614 0.419216" fill="#5D31D9"/>
</svg>
